<svg xmlns="http://www.w3.org/2000/svg" viewBox="0 0 220 220"><defs><linearGradient id="g" x1="0" y1="0" x2="1" y2="1"><stop stop-color="#fff7d8"/><stop offset="1" stop-color="#f4c45f"/></linearGradient><filter id="s" x="-20%" y="-20%" width="140%" height="140%"><feDropShadow dx="0" dy="5" stdDeviation="5" flood-color="#5a3b0a" flood-opacity=".25"/></filter></defs><g filter="url(#s)"><path d="M48 50h112c20 0 28 15 18 29-8 11-22 12-34 6v86H48c-20 0-28-15-18-29 8-11 22-12 34-6V50Z" fill="url(#g)" stroke="#b7791f" stroke-width="6"/><path d="M64 50c-16 0-28 8-28 22s12 22 28 22" fill="none" stroke="#8b5a13" stroke-width="6"/><path d="M151 50c16 0 28 8 28 22s-12 22-28 22" fill="none" stroke="#8b5a13" stroke-width="6"/><path d="M78 92h58M78 113h70M78 134h50" stroke="#6b4c1f" stroke-width="8" stroke-linecap="round"/><path d="M145 145l30-50 12 13-32 48-16 8z" fill="#2563eb" stroke="#0f3b92" stroke-width="3"/></g></svg>