<svg xmlns="http://www.w3.org/2000/svg" viewBox="0 0 220 220"><defs><linearGradient id="g" x1="0" y1="0" x2="1" y2="1"><stop stop-color="#fff7d8"/><stop offset="1" stop-color="#f4c45f"/></linearGradient><filter id="s" x="-20%" y="-20%" width="140%" height="140%"><feDropShadow dx="0" dy="5" stdDeviation="5" flood-color="#5a3b0a" flood-opacity=".25"/></filter></defs><g filter="url(#s)"><path d="M32 58l46-14 64 20 46-14v112l-46 14-64-20-46 14z" fill="#fef3c7" stroke="#8b5a13" stroke-width="6"/><path d="M78 44v112M142 64v112" stroke="#d19a3a" stroke-width="5"/><path d="M55 126c30-42 56 22 93-28 19-26 27-13 35-3" fill="none" stroke="#ef4444" stroke-width="6" stroke-dasharray="10 9" stroke-linecap="round"/><circle cx="58" cy="126" r="8" fill="#2563eb"/><path d="M149 86l15 15M164 86l-15 15" stroke="#dc2626" stroke-width="6" stroke-linecap="round"/><circle cx="164" cy="156" r="32" fill="#bfdbfe" opacity=".65" stroke="#1d4ed8" stroke-width="5"/><path d="M187 180l22 22" stroke="#8b5a13" stroke-width="11" stroke-linecap="round"/></g></svg>